# xmcd CD database file
#
# Track frame offsets:
#	150
#	14061
#	27690
#	41620
#	55452
#	69287
#	83107
#	96290
#	110382
#	123896
#	138241
#	153095
#	168176
#	184231
#	198330
#	211547
#	223237
#	236696
#	246736
#	264571
#	282183
#	293818
#	312371
#	320533
#	334003
#
# Disc length: 4636 seconds
#
# Revision: 1
# Processed by: cddbd v1.5.1PL0 Copyright (c) Steve Scherf et al.
# Submitted via: CDex 1.51
#
DISCID=76121a19
DTITLE=Roy Eldridge - Disc One: Swing is Here
DYEAR=1936
DGENRE=Jazz
TTITLE0=(Lookie, lookie, lookie) Here comes Cookie
TTITLE1=What a little moonlight can do
TTITLE2=Sweet Lorraine
TTITLE3=Swingin' on the famous door
TTITLE4=Farewell blues
TTITLE5=I hope Gabriel likes my music
TTITLE6=Swing is here
TTITLE7=Blue Lou
TTITLE8=Stealin' apples
TTITLE9=Too good to be true
TTITLE10=Warmin' up
TTITLE11=Blues in C sharp minor
TTITLE12=Shoe shine boy
TTITLE13=Wabash stomp
TTITLE14=Florida stomp
TTITLE15=Heckler's hop
TTITLE16=That thing
TTITLE17=Sittin' in
TTITLE18=Stardust
TTITLE19=Body and soul
TTITLE20=Forty-six west fifty-two
TTITLE21=S-h-i-n-e
TTITLE22=Roy's riffin' now
TTITLE23=I'm getting' sentimental over you
TTITLE24=High society
EXTD=YEAR: 1936
EXTT0=
EXTT1=
EXTT2=
EXTT3=
EXTT4=
EXTT5=
EXTT6=
EXTT7=
EXTT8=
EXTT9=
EXTT10=
EXTT11=
EXTT12=
EXTT13=
EXTT14=
EXTT15=
EXTT16=
EXTT17=
EXTT18=
EXTT19=
EXTT20=
EXTT21=
EXTT22=
EXTT23=
EXTT24=
PLAYORDER=
